<?xml version="1.0" standalone="no"?>
<!DOCTYPE svg PUBLIC "-//W3C//DTD SVG 1.1//EN" "http://www.w3.org/Graphics/SVG/1.1/DTD/svg11.dtd" >
<!--
2013-9-30: Created.
-->
<svg>
<metadata>
Created by iconfont
</metadata>
<defs>

<font id="iconfont" horiz-adv-x="1024" >
  <font-face
    font-family="iconfont"
    font-weight="500"
    font-stretch="normal"
    units-per-em="1024"
    ascent="896"
    descent="-128"
  />
    <missing-glyph />
    
    <glyph glyph-name="x" unicode="x" horiz-adv-x="1001"
d="M281 543q-27 -1 -53 -1h-83q-18 0 -36.5 -6t-32.5 -18.5t-23 -32t-9 -45.5v-76h912v41q0 16 -0.5 30t-0.5 18q0 13 -5 29t-17 29.5t-31.5 22.5t-49.5 9h-133v-97h-438v97zM955 310v-52q0 -23 0.5 -52t0.5 -58t-10.5 -47.5t-26 -30t-33 -16t-31.5 -4.5q-14 -1 -29.5 -0.5
t-29.5 0.5h-32l-45 128h-439l-44 -128h-29h-34q-20 0 -45 1q-25 0 -41 9.5t-25.5 23t-13.5 29.5t-4 30v167h911zM163 247q-12 0 -21 -8.5t-9 -21.5t9 -21.5t21 -8.5q13 0 22 8.5t9 21.5t-9 21.5t-22 8.5zM316 123q-8 -26 -14 -48q-5 -19 -10.5 -37t-7.5 -25t-3 -15t1 -14.5
t9.5 -10.5t21.5 -4h37h67h81h80h64h36q23 0 34 12t2 38q-5 13 -9.5 30.5t-9.5 34.5q-5 19 -11 39h-368zM336 498v228q0 11 2.5 23t10 21.5t20.5 15.5t34 6h188q31 0 51.5 -14.5t20.5 -52.5v-227h-327z" />
    

    
    <glyph glyph-name="zhiding" unicode="&#58962;" d="M512 676.571429 182.857143 347.428571 329.142857 347.428571 329.142857 18.285714 694.857143 18.285714 694.857143 347.428571 841.142857 347.428571ZM109.714286 786.285714l804.571429 0 0-36.571429-804.571429 0 0 36.571429Z"  horiz-adv-x="1024" />

    
    <glyph glyph-name="iconfontcaidanmubiaoyemianshezhiicon" unicode="&#58939;" d="M214.542805-43.632497c-44.87607 0-81.296561 36.419468-81.296561 81.296561L133.246244 728.682273c0 44.87607 36.419468 81.297584 81.296561 81.297584l255.597329 0.161682c29.30442-7.478322 28.90226-43.490513 28.90226-79.547731l0-123.854842c0-22.396079 18.247596-40.648792 40.647769-40.648792l121.94126 0c40.567951 0 81.297584-0.201591 81.297584-40.648792l0-153.849994c25.570375 10.608615 52.884464 17.799388 81.296561 21.417799L824.225568 566.12906c0 43.208081-40.159652 84.633562-111.13003 154.183592-9.918907 9.752108-20.083407 19.668968-30.081109 29.753651-10.078543 9.998725-19.996426 20.162202-29.752628 30.080086-69.550029 70.971401-110.970394 111.131053-154.178475 111.131053L214.542805 891.277442c-89.63139 0-162.593122-72.961732-162.593122-162.595168l0-691.019233c0-89.63139 72.961732-162.593122 162.593122-162.593122l406.444942 0c-20.283975 24.305569-36.948517 51.664683-49.312102 81.297584L214.542805-43.632497zM660.655188 487.703897c0 14.350846-11.741415 26.093285-26.093285 26.093285L250.037203 513.797182c-14.350846 0-26.093285-11.741415-26.093285-26.093285l0-13.605879c0-14.350846 11.741415-26.093285 26.093285-26.093285l384.525724 0c14.350846 0 26.093285 11.741415 26.093285 26.093285L660.656212 487.703897zM660.655188 328.755792l0 13.605879c0 14.350846-11.741415 26.093285-26.093285 26.093285L250.037203 368.454956c-14.350846 0-26.093285-11.741415-26.093285-26.093285l0-13.605879c0-14.350846 11.741415-26.093285 26.093285-26.093285l384.525724 0C648.913773 302.662507 660.655188 314.403922 660.655188 328.755792zM250.037203 223.11273c-14.350846 0-26.093285-11.741415-26.093285-26.093285l0-13.605879c0-14.350846 11.741415-26.093285 26.093285-26.093285l144.995325 0c14.350846 0 26.093285 11.741415 26.093285 26.093285l0 13.605879c0 14.350846-11.741415 26.093285-26.093285 26.093285L250.037203 223.11273zM964.884121 152.171004c-4.010337 14.985296-9.943466 29.183669-17.531282 42.311665l33.30964 50.268894-0.055259 0.055259-47.381124 47.381124-0.055259 0.055259-50.271964-33.307593c-13.124925 7.588839-27.323299 13.519921-42.311665 17.532305l-11.993149 59.090816-0.077771 0-67.00609 0-0.077771 0-11.993149-59.092863c-14.986319-4.010337-29.184693-9.94142-42.311665-17.531282l-50.268894 33.30964-0.055259-0.055259-47.381124-47.381124-0.055259-0.055259 33.30657-50.271964c-7.587815-13.124925-13.521968-27.323299-17.531282-42.308595l-59.09184-11.992125 0-0.077771 0-67.00609 0-0.077771 59.093886-11.992125c4.009314-14.986319 9.94142-29.186739 17.531282-42.311665L609.370152-31.558507l0.055259-0.055259 47.381124-47.381124 0.055259-0.055259 50.27094 33.30964c13.124925-7.587815 27.323299-13.521968 42.309618-17.531282l11.995195-59.093886 0.077771 0 67.00609 0 0.077771 0 11.992125 59.093886c14.985296 4.009314 29.183669 9.94449 42.308595 17.531282l50.271964-33.30964 0.055259 0.055259 47.381124 47.381124 0.055259 0.055259-33.307593 50.27094c7.587815 13.124925 13.518898 27.323299 17.532305 42.311665l59.090816 11.992125 0 0.077771 0 67.00609 0 0.077771L964.884121 152.171004zM795.016316 28.641573c-39.561018 0-71.631434 32.070416-71.631434 71.631434 0 39.561018 32.070416 71.631434 71.631434 71.631434 39.561018 0 71.631434-32.070416 71.631434-71.631434C866.64775 60.711989 834.577333 28.641573 795.016316 28.641573z"  horiz-adv-x="1024" />

    
    <glyph glyph-name="huodong01-copy" unicode="&#58883;" d="M960.138 185.194v-99.385c0-27.417-22.225-49.643-49.692-49.643l-496.924 0v198.767h-49.715v-198.767l-248.413 0c-27.468 0-49.741 22.225-49.741 49.643v99.385c82.375 0 149.102 66.725 149.102 149.125 0 82.302-66.727 149.102-149.102 149.102l0 198.768c0 27.369 22.274 49.644 49.741 49.644h248.413v-198.768h49.715v198.768h496.923c27.467 0 49.692-22.274 49.692-49.644v-198.769c-82.399 0-149.076-66.799-149.076-149.102 0.001-82.4 66.678-149.124 149.077-149.124v0zM413.523 483.42h-49.715v-198.842h49.715v198.842z"  horiz-adv-x="1024" />

    
    <glyph glyph-name="fangying" unicode="&#58909;" d="M281.6 563.2l460.8 0 0-76.8-460.8 0 0 76.8ZM947.2 742.4 76.8 742.4l0-102.4 76.8 0 0-409.6 307.2 0 0-179.2-153.6 0 0-76.8 153.6 0 102.4 0 153.6 0 0 76.8-153.6 0 0 179.2 307.2 0L870.4 640l76.8 0L947.2 742.4zM793.6 307.2 230.4 307.2 230.4 640l563.2 0L793.6 307.2z"  horiz-adv-x="1024" />

    
    <glyph glyph-name="wenjianjia1" unicode="&#58884;" d="M659.8656 164.2496c-21.7088 0-39.1168 17.6128-39.1168 39.3216l0 98.0992c0 21.7088 17.6128 39.3216 39.1168 39.3216l303.3088 0c2.2528 0 4.3008-0.2048 6.5536-0.4096L969.728 683.8272c0 27.0336-21.9136 48.9472-48.9472 48.9472l-174.08 0-46.6944 98.0992L121.6512 582.656l696.7296 0-63.6928 133.9392 153.1904 0c21.7088 0 39.1168-17.6128 39.1168-39.3216l0-88.2688c0-9.0112-7.3728-16.384-16.384-16.384L98.7136 572.6208c-27.0336 0-48.9472 21.9136-48.9472 48.9472l0 45.6704c0 27.0336 21.9136 48.9472 48.9472 48.9472l182.6816 0-167.1168-131.4816L595.968 796.672 501.5552 889.856l-199.2704-156.8768L75.776 732.9792c-39.7312 0-71.68-32.1536-71.68-71.8848l0-702.8736C4.096-81.5104 36.2496-113.664 75.776-113.664l861.184 0c18.0224 0 32.5632 14.5408 32.5632 32.768L969.5232 164.6592c-2.048-0.2048-4.3008-0.4096-6.5536-0.4096L659.8656 164.2496zM963.1744 330.9568 663.1424 330.9568c-18.0224 0-32.5632-14.5408-32.5632-32.768l0-91.5456c0-18.0224 14.5408-32.768 32.5632-32.768l300.2368 0c32.3584 0 58.7776 26.4192 58.7776 58.7776l0 39.3216C1021.952 304.5376 995.7376 330.9568 963.1744 330.9568z"  horiz-adv-x="1024" />

    
    <glyph glyph-name="fangyingji" unicode="&#58943;" d="M74.749448 318.877817c0-210.630185 170.810271-381.431246 381.431246-381.431246s381.431246 170.801061 381.431246 381.431246c0 72.009034-30.890544 163.549913-55.819307 202.433502-21.587668 33.305547-29.028127 54.702879-29.028127 85.964884 0 65.122183 68.657706 130.244366 140.665717 130.244366l9.302877 0c25.674753 0 46.51643 20.840654 46.51643 46.51643S928.408875 830.553429 902.734122 830.553429l-9.302877 0c-114.427122 0-212.302267-61.036122-235.560994-186.065719-47.632857 36.094056-121.685433 55.821353-201.689558 55.821353C245.559719 700.309062 74.749448 529.498792 74.749448 318.877817zM409.664264 318.877817c0 25.674753 20.840654 46.514383 46.51643 46.514383 25.674753 0 46.51643-20.839631 46.51643-46.514383s-20.840654-46.517453-46.51643-46.517453C430.505941 272.360364 409.664264 293.203064 409.664264 318.877817zM167.781284 318.877817c0 46.333258 37.394678 83.72896 83.72896 83.72896s83.72896-37.394678 83.72896-83.72896-37.394678-83.731006-83.72896-83.731006S167.781284 272.544559 167.781284 318.877817zM577.122183 318.877817c0 46.333258 37.394678 83.72896 83.72896 83.72896s83.72896-37.394678 83.72896-83.72896-37.394678-83.731006-83.72896-83.731006S577.122183 272.544559 577.122183 318.877817zM372.451734 114.205321c0 46.335305 37.394678 83.731006 83.72896 83.731006s83.72896-37.394678 83.72896-83.731006c0-46.333258-37.394678-83.726913-83.72896-83.726913S372.451734 67.872063 372.451734 114.205321zM372.451734 523.54622c0 46.333258 37.394678 83.731006 83.72896 83.731006s83.72896-37.396725 83.72896-83.731006-37.394678-83.726913-83.72896-83.726913S372.451734 477.212962 372.451734 523.54622z"  horiz-adv-x="1024" />

    
    <glyph glyph-name="shangxian" unicode="&#59004;" d="M912.822898 376.015142 663.707191 376.015142 663.707191-22.554436 364.769774-22.554436 364.769774 376.015142 115.654067 376.015142 514.241041 774.58472 912.828015 376.015142 912.822898 376.015142Z"  horiz-adv-x="1024" />

    
    <glyph glyph-name="weibiaoti4" unicode="&#58898;" d="M995.896439-99.82444c-37.631412-37.567413-98.494461-37.567413-135.997875 0l-169.725348 169.661349c-69.822909-44.671302-152.253621-71.358885-241.340229-71.358885C200.96486-1.457977 0.008 199.370885 0.008 447.239012 0.008 695.107139 200.96486 896 448.768988 896s448.760988-200.892861 448.760988-448.760988c0-89.086608-26.687583-171.51732-71.422884-241.340229l169.725348-169.661349C1033.335854-1.329979 1033.335854-62.257027 995.896439-99.82444L995.896439-99.82444zM448.768988 767.810003c-177.021234 0-320.506992-143.485758-320.506992-320.506992 0-177.021234 143.485758-320.570991 320.506992-320.570991s320.570991 143.549757 320.570991 320.570991C769.339979 624.260246 625.790222 767.810003 448.768988 767.810003L448.768988 767.810003z"  horiz-adv-x="1024" />

    
    <glyph glyph-name="weibiaoti41" unicode="&#58899;" d="M512 745.92c-338.304 0-512-340.928-512-340.928S131.072 64 512 64c345.024 0 512 339.648 512 339.648S855.616 745.92 512 745.92L512 745.92 512 745.92zM512.768 191.872c-123.712 0-213.12 93.248-213.12 213.12s89.408 213.12 213.12 213.12c123.712 0 213.12-93.248 213.12-213.12S636.48 191.872 512.768 191.872L512.768 191.872 512.768 191.872zM512.768 532.864C442.112 532.736 384.896 473.472 384.896 404.992c0-68.48 57.216-127.872 127.872-127.872 70.72 0 127.872 59.392 127.872 127.872C640.64 473.472 583.488 532.992 512.768 532.864L512.768 532.864 512.768 532.864z"  horiz-adv-x="1024" />

    
    <glyph glyph-name="weibiaoti42" unicode="&#58900;" d="M1024 267.008l-256.448 224v-125.12h-383.552v-197.824h383.616v-125.056l256.384 224zM640 621.888h-383.616v125.12l-256.384-224 256.448-224v125.056h383.552v197.824z"  horiz-adv-x="1024" />

    
    <glyph glyph-name="weibiaoti43" unicode="&#58901;" d="M504.704 337.344c161.536 0 292.544 125.056 292.544 279.36C797.248 770.88 666.24 896 504.704 896 343.104 896 212.096 770.88 212.096 616.64 212.096 462.4 343.104 337.344 504.704 337.344L504.704 337.344zM512 310.848c-226.176 0-512-175.104-512-391.104L0-128l1024 0 0 47.744C1024 135.744 738.176 310.848 512 310.848L512 310.848z"  horiz-adv-x="1024" />

    
    <glyph glyph-name="bbdtanxunguanxi" unicode="&#58904;" d="M895.994 768.002 895.994 896 767.996 896 767.996 768.002 639.998 768.002 639.998 640.004 767.996 640.004 767.996 512.006 895.994 512.006 895.994 640.004 1023.992 640.004 1023.992 768.002ZM251.076077 516.229934c-20.223684-20.223684-20.223684-53.055171 0-73.278855l316.091061-316.091061c20.223684-20.159685 53.055171-20.223684 73.342854 0 20.159685 20.223684 20.159685 53.055171-0.063999 73.342854L324.290933 516.229934C304.067249 536.517617 271.299761 536.453618 251.076077 516.229934zM307.075202 338.056718C294.339401 332.16881 278.723645 334.408775 268.227809 344.904611L113.798222 499.334198c-13.43979 13.43979-13.43979 35.391447 0 48.895236l106.046343 106.046343c13.43979 13.43979 35.391447 13.43979 48.831237 0l154.493586-154.493586C433.92122 489.030359 435.969188 472.902611 429.44129 459.974813l74.23884-74.23884c46.463274 54.271152 44.031312 135.997875-7.231887 187.325073L341.954657 727.490633c-53.951157 53.951157-141.43779 53.951157-195.388947 0L40.519367 621.44429c-53.951157-53.951157-53.951157-141.373791 0-195.388947l154.493586-154.493586c51.135201-51.071202 132.285933-53.695161 186.557085-7.935876L307.075202 338.056718zM701.117045 368.392244C649.725848 419.783441 568.063124 422.087405 513.727973 375.68813l74.23884-74.302839c12.927798 6.527898 29.055546 4.47993 39.871377-6.271902l154.429587-154.493586c13.43979-13.43979 13.43979-35.391447 0-48.831237l-106.046343-106.046343c-13.503789-13.503789-35.455446-13.503789-48.895236 0L472.96061 140.17181c-10.495836 10.495836-12.735801 26.111592-6.847893 38.847393L391.68188 253.514039c-45.759285-54.335151-43.135326-135.421884 7.999875-186.557085l154.493586-154.493586c53.951157-53.951157 141.43779-53.951157 195.388947 0l106.046343 106.046343c53.951157 54.015156 53.951157 141.43779 0 195.388947L701.117045 368.392244z"  horiz-adv-x="1024" />

    
    <glyph glyph-name="weibiaoti1" unicode="&#58910;" d="M512 896C229.248 896 0 666.816 0 384s229.248-512 512-512 512 229.248 512 512S794.752 896 512 896zM783.488 203.008l-90.496-90.496L512 293.504l-180.992-180.992-90.496 90.496L421.504 384 240.512 565.056l90.496 90.496L512 474.56l180.992 181.056 90.496-90.496L602.496 384 783.488 203.008z"  horiz-adv-x="1024" />

    
    <glyph glyph-name="weibiaoti11" unicode="&#58911;" d="M150.336 512l233.6 0L240.896 655.04C310.272 724.672 405.888 768 511.936 768c212.096 0 384-171.904 384-384l128 0c0 282.752-229.184 512-512 512C370.56 896 242.944 838.272 150.528 745.408L0 896l0-384 16.768 0L150.336 512 150.336 512zM873.6 256 639.936 256l143.104-143.104C713.664 43.264 618.048 0 511.936 0c-212.032 0-384 171.904-384 384L0 384c0-282.816 229.184-512 511.936-512 141.504 0 268.992 57.6 361.472 150.528L1023.936-128l0 384-16.768 0L873.6 256 873.6 256z"  horiz-adv-x="1024" />

    
    <glyph glyph-name="weibiaoti12" unicode="&#58915;" d="M704 192 704 896 576 896 576-128 896 192ZM320 576 320-128 448-128 448 896 128 576Z"  horiz-adv-x="1024" />

    
    <glyph glyph-name="fanhui" unicode="&#58920;" d="M58.56 564.032l330.24-329.408L388.8 434.24c99.968 0 354.688-2.304 354.688-273.92 0-142.208-97.28-260.8-226.624-288.32 207.744 29.248 368.448 212.032 368.448 435.52 0 415.104-427.712 418.624-496.576 418.624L388.736 896 58.56 564.032 58.56 564.032z"  horiz-adv-x="1024" />

    
    <glyph glyph-name="quanbu" unicode="&#58921;" d="M0 704h1024v-128h-1024v128zM0 448h1024v-128h-1024v128zM0 192h1024v-128h-1024v128z"  horiz-adv-x="1024" />

    
    <glyph glyph-name="xiaoxi" unicode="&#58923;" d="M512 896C264.576 896 64 695.488 64 448c0-84.16 23.616-162.688 64-229.888L128-128l178.24 178.24C367.936 18.368 437.76 0 512 0c247.424 0 448 200.64 448 448C960 695.488 759.424 896 512 896zM320 384C284.608 384 256 412.672 256 448s28.608 64 64 64 64-28.672 64-64S355.392 384 320 384zM512 384C476.608 384 448 412.672 448 448s28.608 64 64 64 64-28.672 64-64S547.392 384 512 384zM704 384c-35.392 0-64 28.672-64 64s28.608 64 64 64 64-28.672 64-64S739.392 384 704 384z"  horiz-adv-x="1024" />

    
    <glyph glyph-name="zhushi" unicode="&#58925;" d="M512 896c-282.88 0-512-229.12-512-512 0-282.88 229.184-512 512-512 282.816 0 512 229.12 512 512C1024 666.88 794.88 896 512 896L512 896zM520.896-22.592c-46.528 0-84.032 37.632-84.032 84.032s37.568 84.032 84.032 84.032c46.4 0 83.968-37.568 83.968-84.032C605.376 15.552 567.296-22.592 520.896-22.592L520.896-22.592zM742.144 479.04c-11.52-24-33.856-51.648-68.352-85.12-38.016-36.48-53.76-53.76-60.48-62.144C605.376 321.92 599.104 310.464 595.52 296.384c-4.096-14.656-6.272-36.032-5.76-62.656l0.512-31.36L445.696 202.368l0 30.784c0 38.144 3.136 68.352 9.408 91.904 6.72 24.512 16.64 46.464 30.272 64.704 12.48 17.28 33.344 40.768 63.616 72.576C583.488 497.792 597.12 515.008 601.728 523.392c3.136 5.248 8.384 17.216 8.384 45.376 0 19.328-6.72 36.032-20.864 51.712-13.568 14.592-33.984 21.376-62.08 21.376-83.008 0-94.528-59.52-94.528-117.952l0-30.784L287.552 493.12 288.64 524.416c1.472 49.088 7.232 86.08 18.24 113.28C317.824 665.344 336.128 690.432 360.128 712.32c23.424 21.376 50.624 37.056 79.296 46.976 28.672 9.92 58.944 14.656 90.304 14.656 64.192 0 118.976-19.328 162.816-57.92l0 0c44.352-39.68 67.264-92.352 67.264-157.12C759.872 530.688 754.112 503.552 742.144 479.04L742.144 479.04z"  horiz-adv-x="1024" />

    
    <glyph glyph-name="shijian" unicode="&#58927;" d="M512 896C229.248 896 0 666.752 0 384c0-282.752 229.248-512 512-512s512 229.248 512 512C1024 666.752 794.752 896 512 896zM730.496 75.008 448 320 448 640l128 0 0-256 244.992-218.496L730.496 75.008z"  horiz-adv-x="1024" />

    
    <glyph glyph-name="youjian" unicode="&#58928;" d="M428.864 276.288 0 540.864l0-416.576C0 55.808 57.152 0 127.616 0l768.768 0c70.4 0 127.552 55.616 127.552 124.224L1023.936 533.952 622.656 277.76C567.872 242.88 484.096 242.368 428.864 276.288L428.864 276.288zM896.384 768 127.616 768C57.216 768 0 712.384 0 643.776l0-0.96 482.24-297.344c22.656-14.016 63.36-13.696 85.824 0.64L1024 637.12 1024 643.776C1023.936 712.128 966.72 768 896.384 768L896.384 768z"  horiz-adv-x="1024" />

    
    <glyph glyph-name="weizhi" unicode="&#58932;" d="M498.048-123.136C502.208-126.4 507.072-128 512.064-128c4.864 0 9.728 1.6 13.888 4.864 15.104 11.84 370.24 340.48 370.24 635.072 0 211.776-172.352 384-384.128 384-211.84 0-384.256-172.288-384.256-384C127.808 217.344 482.944-111.296 498.048-123.136zM332.8 512.064c0 99.008 80.256 179.264 179.264 179.264s179.328-80.256 179.328-179.264S611.072 332.736 512.064 332.736 332.8 413.056 332.8 512.064z"  horiz-adv-x="1024" />

    
    <glyph glyph-name="shangchuan" unicode="&#58933;" d="M128 512 128 512 0 512 0 384 0-128 0.384-128 128-128 896.32-128 1022.976-128 1024-128 1024 384 1024 512 896.32 512 896 512 896 384 896 0 128 0ZM448 256l128 0 0-128-128 0 0 128ZM448 640 448 384 576 384 576 640 576.192 640 640 640 768.128 640 512.128 896 256.128 640 320 640Z"  horiz-adv-x="1024" />

    
    <glyph glyph-name="xiazai" unicode="&#58934;" d="M128 512 128 512 0 512 0 384 0-128 0.384-128 128-128 896.32-128 1022.976-128 1024-128 1024 384 1024 512 896.32 512 896 512 896 384 896 0 128 0ZM448.256 896l128 0 0-128-128 0 0 128ZM768.128 384 704.256 384 576 384 576 640 448 640 448 384 384.256 384 256.128 384 512.128 128Z"  horiz-adv-x="1024" />

    
    <glyph glyph-name="tuichu" unicode="&#58935;" d="M512 0 128 0 128 768 512 768 512 640 640 640 640 768 640 896 512 896 0 896 0 895.616 0 768 0-0.32 0-126.976 0-128 512-128 640-128 640-0.32 640 128 512 128ZM768 256 768 127.872 1024 383.872 768 639.872 768 576 768 448 256 448 256 320 768 320 768 319.808Z"  horiz-adv-x="1024" />

    
    <glyph glyph-name="shoucang" unicode="&#58936;" d="M896 768h-384l-128 128h-256c-70.656 0-128-57.344-128-128v-768c0-70.656 57.344-128 128-128h768c70.656 0 128 57.344 128 128v640c0 70.656-57.344 128-128 128zM512-5.12c-102.464 51.2-320 256-320 409.6 0 128 102.4 179.2 179.2 179.2s140.8-76.8 140.8-76.8 64 76.8 140.736 76.8c76.864 0 179.264-51.2 179.264-179.2 0-153.6-217.6-358.4-320-409.6z"  horiz-adv-x="1024" />

    
    <glyph glyph-name="guanzhu" unicode="&#58937;" d="M896 768 512 768 384 896 128 896C57.344 896 0 838.656 0 768l0-768c0-70.656 57.344-128 128-128l768 0c70.72 0 128 57.344 128 128L1024 384 1024 640C1024 710.656 966.72 768 896 768zM768 256 576 256l0-192L448 64l0 192L256 256 256 384l192 0L448 576l128 0 0-192 192 0L768 256z"  horiz-adv-x="1024" />

    
    <glyph glyph-name="wenjianjia" unicode="&#58938;" d="M128 640l896 0c0 70.656-57.28 128-128 128L512 768 384 896 128 896C57.344 896 0 838.656 0 768l0-640L128 640zM0 48 0 0c0-70.656 57.344-128 128-128l768 0c70.72 0 128 57.344 128 128L1024 384 1024 576 192 576 0 48z"  horiz-adv-x="1024" />

    
    <glyph glyph-name="fankui" unicode="&#58940;" d="M896 896 128 896C57.344 896 0 838.656 0 768l0-512c0-70.656 64-128 128-128l0-256 213.312 256L896 128c70.656 0 128 57.344 128 128L1024 768C1024 838.656 966.656 896 896 896zM576 384 192 384 192 448l384 0L576 384zM832 512 192 512 192 576l640 0L832 512zM832 640 192 640 192 704l640 0L832 640z"  horiz-adv-x="1024" />

    
    <glyph glyph-name="gengduo" unicode="&#58941;" d="M512 896C229.248 896 0 666.752 0 384c0-282.752 229.248-512 512-512 282.752 0 512 229.248 512 512C1024 666.752 794.752 896 512 896zM256 320C220.672 320 192 348.672 192 384s28.672 64 64 64 64-28.672 64-64S291.328 320 256 320zM512 320C476.672 320 448 348.672 448 384s28.672 64 64 64 64-28.672 64-64S547.328 320 512 320zM768 320c-35.392 0-64 28.672-64 64s28.608 64 64 64 64-28.672 64-64S803.392 320 768 320z"  horiz-adv-x="1024" />

    
    <glyph glyph-name="renminbi" unicode="&#58942;" d="M512 896a512 512 0 1 1 0-1024A512 512 0 0 1 512 896z m192-512v-64H576v-64h128v-64H576v-128H448v128H320v64h128V320H320V384h108.544l-139.52 320h124.48l102.016-256h1.472c3.328 0 8.448 32.576 15.424 49.088L616.832 704h118.144L591.296 384H704z"  horiz-adv-x="1024" />

    
    <glyph glyph-name="zengjia" unicode="&#58944;" d="M896 896h-768c-70.692 0-128-57.308-128-128v-768c0-70.692 57.308-128 128-128h768c70.692 0 128 57.308 128 128v768c0 70.692-57.308 128-128 128zM832 320h-256v-256h-128v256h-256v128h256v256h128v-256h256v-128z"  horiz-adv-x="1024" />

    
    <glyph glyph-name="jianshao" unicode="&#58945;" d="M896 896h-768c-70.692 0-128-57.308-128-128v-768c0-70.692 57.308-128 128-128h768c70.692 0 128 57.308 128 128v768c0 70.692-57.308 128-128 128zM832 320h-640v128h640v-128z"  horiz-adv-x="1024" />

    
    <glyph glyph-name="dianhua" unicode="&#58946;" d="M512 896c-282.77 0-512-229.23-512-512s229.23-512 512-512c282.77 0 512 229.23 512 512 0 282.77-229.23 512-512 512zM828.672 139.072c-14.144-44.608-75.648-110.656-131.776-110.656l-3.776 0.128c-85.44 4.352-200.704 84.608-308.416 214.912l-39.744 48.128c-107.84 130.176-164.288 257.408-151.104 340.224 9.344 58.432 96.256 107.776 145.856 107.776 24.448 0 33.344-12.16 36.352-19.456 28.096-49.92 62.848-136.768 62.976-167.936l0.064-2.24-0.704-2.048c-6.208-16.384-20.096-24.192-32.256-31.104-16.128-9.152-25.344-15.104-26.432-32.32-0.32-5.248 4.16-28.992 75.264-116.672l30.4-36.672c71.232-84.16 93.76-93.184 99.008-93.952 17.152-2.368 25.28 5.12 37.696 18.624 9.344 10.368 20.096 22.144 37.632 24.704l2.24 0.32 2.24-0.512c30.976-6.528 110.528-57.728 155.648-95.744 6.464-4.416 17.856-17.216 8.832-45.504z"  horiz-adv-x="1024" />

    
    <glyph glyph-name="gongsi" unicode="&#58947;" d="M896 896H128a128 128 0 0 1-128-128v-768a128 128 0 0 1 128-128h768a128 128 0 0 1 128 128V768a128 128 0 0 1-128 128zM429.44 39.104H270.912v72.768l158.528 11.52v-84.288z m0 136.384l-158.528-15.232V229.12l158.528 26.624v-80.256z m0 136.768l-158.528-31.616v70.4l158.528 41.664v-80.448z m0 134.656l-158.528-43.584V476.8l158.528 53.632v-83.52z m175.808-407.04H475.072v562.56L223.04 519.36v-481.984h-44.352l0.128 506.496 336.896 121.472 89.536-54.4v-571.072z m277.44 0.256h-201.216V751.744L379.264 649.92v31.104l332.8 124.352 100.032-87.104v-632.448h70.656v-45.696z"  horiz-adv-x="1024" />

    
    <glyph glyph-name="tupian" unicode="&#58948;" d="M896 896h-768c-70.692 0-128-57.308-128-128v-768c0-70.692 57.308-128 128-128h768c70.692 0 128 57.308 128 128v768c0 70.692-57.308 128-128 128zM896 0h-768v640l384-320 192 64 192-128v-256zM768 512c-70.696 0.018-128 57.333-128 128.032 0 70.71 57.322 128.032 128.032 128.032 0.011 0 0.023-0 0.034-0 70.695-0.018 127.998-57.333 127.998-128.032 0-70.71-57.322-128.032-128.032-128.032-0.011 0-0.023 0-0.034 0z"  horiz-adv-x="1024" />

    
    <glyph glyph-name="jinggao" unicode="&#58949;" d="M910.592 229.248h-45.824V477.824v0.512 0.96a352.448 352.448 0 0 1-257.088 339.2 97.92 97.92 0 0 1-191.424 0 352.64 352.64 0 0 1-257.024-339.2v-250.048h-45.76a49.408 49.408 0 0 1-49.472-49.344v-3.904c0-27.392 22.144-49.472 49.472-49.472h797.12A49.472 49.472 0 0 1 960 176v3.904a49.408 49.408 0 0 1-49.408 49.344zM512-128a196.096 196.096 0 0 1 192 156.544H320A196.096 196.096 0 0 1 512-128z"  horiz-adv-x="1024" />

    
    <glyph glyph-name="xiaxiantubiao" unicode="&#58961;" d="M512.003-117.627l255.99 340.182h-144.071v339.031h-222.695l-1.156-339.031-144.064-0.15zM400.962 873.842h222.96v-77.807h-222.96v77.807zM400.962 713.954h222.96v-77.807h-222.96v77.807z"  horiz-adv-x="1024" />

    
    <glyph glyph-name="biaoqian" unicode="&#58951;" d="M1023.6928 626.432a74.048 74.048 0 0 1-22.656 54.464A77.696 77.696 0 0 1 946.1248 704l-612.48-0.448c-21.696 0-45.504-5.376-71.36-16.064-25.792-10.688-46.336-23.616-61.504-38.784L22.4768 470.4A75.008 75.008 0 0 1 0.1408 415.552c0.064-21.696 7.488-40 22.336-54.848l178.304-178.368c15.168-15.104 35.648-28.032 61.504-38.72 25.856-10.688 49.472-15.872 70.976-15.616l613.312-0.448c21.12 0 39.296 7.552 54.464 22.656 14.784 14.848 22.592 33.216 23.104 54.848l-0.448 421.376zM296.8448 360.768c-15.168-15.168-33.408-22.784-54.848-22.784s-39.744 7.552-54.912 22.72c-15.104 15.104-22.72 33.408-22.72 54.848s7.552 39.68 22.72 54.848c15.104 15.104 33.408 22.72 54.848 22.72 21.504-0.064 39.744-7.616 54.848-22.72 15.168-15.168 22.72-33.472 22.72-54.848 0-21.504-7.552-39.744-22.656-54.784z"  horiz-adv-x="1024" />

    
    <glyph glyph-name="mima" unicode="&#58952;" d="M822.144 537.6h-29.12s-1.024 33.728-1.024 51.2V640c0 141.376-125.376 256-280 256S232 781.376 232 640v-102.4h-30.208C125.76 537.6 64 477.888 64 404.48v-399.296C64-68.288 125.76-128 201.792-128h620.288C898.112-128 960-68.288 960 5.184V404.48c0 73.408-61.888 133.12-137.856 133.12z m-254.208-344.384V76.8c0-28.16-25.088-51.2-56-51.2s-56 22.976-56 51.2v116.352c-33.92 17.664-57.088 50.496-57.088 88.448C398.848 338.176 449.472 384 512 384c62.464 0 113.024-45.824 113.024-102.4 0-37.952-23.104-70.784-57.088-88.384zM680 537.6h-336V640C344 724.864 419.2 793.6 512 793.6c92.864 0 168-68.736 168-153.6v-102.4z"  horiz-adv-x="1024" />

    
    <glyph glyph-name="shezhi" unicode="&#58954;" d="M1020.096 455.168c-4.032 22.272-25.472 44.992-47.744 49.984l-16.704 3.776a166.144 166.144 0 0 0-95.936 75.904 164.928 164.928 0 0 0-17.6 121.856l5.12 15.68c6.72 21.632-1.92 51.584-19.456 66.432 0 0-15.68 13.312-59.84 38.784-44.096 25.28-63.168 32.256-63.168 32.256-21.568 7.872-51.648 0.384-67.264-16.256l-11.648-12.416c-29.76-28.096-69.632-45.184-113.792-45.184s-84.48 17.28-114.24 45.568L386.624 843.648C371.136 860.288 340.864 867.712 319.36 859.904c0 0-19.328-6.976-63.424-32.256-44.16-25.728-59.648-38.976-59.648-38.976-17.472-14.72-26.048-44.416-19.456-66.24l4.8-15.872a166.336 166.336 0 0 0-17.664-121.664A165.12 165.12 0 0 0 67.456 508.8l-16.064-3.584c-22.08-5.056-43.776-27.52-47.808-49.984 0 0-3.584-20.032-3.584-71.04s3.584-71.04 3.584-71.04c4.032-22.528 25.472-45.056 47.808-50.112l15.68-3.584c39.36-11.648 74.688-37.76 96.768-76.288 22.08-38.336 27.328-81.92 17.664-121.792l-4.608-15.488c-6.592-21.632 2.048-51.648 19.456-66.432 0 0 15.68-13.184 59.84-38.656s63.232-32.384 63.232-32.384c21.44-7.808 51.584-0.384 67.264 16.256l11.008 11.904c29.888 28.288 70.08 45.568 114.432 45.568s84.736-17.472 114.432-45.824l11.072-11.776c15.424-16.704 45.696-24.128 67.264-16.384 0 0 19.2 7.104 63.424 32.384 44.096 25.472 59.584 38.72 59.584 38.72 17.472 14.656 26.176 44.544 19.456 66.368l-4.736 16.128a165.952 165.952 0 0 0 114.368 197.504l15.744 3.648c22.016 4.992 43.712 27.52 47.744 49.984 0 0 3.648 20.032 3.648 71.04-0.384 51.2-4.032 71.232-4.032 71.232z m-508.032-275.2a204.032 204.032 0 1 0 0 408.064 204.16 204.16 0 0 0 204.096-204.16 204.16 204.16 0 0 0-204.096-203.904z"  horiz-adv-x="1024" />

    
    <glyph glyph-name="BBDshoucang2" unicode="&#58955;" d="M882.496 821.056C645.184 954.176 512 721.984 512 721.984S378.816 954.176 141.504 821.056C-95.872 687.872-73.664 298.56 512-94.208c585.664 392.768 607.872 780.352 370.496 915.264z"  horiz-adv-x="1024" />

    
    <glyph glyph-name="BBDanquan" unicode="&#58966;" d="M512-128s-448 151.68-448 418.944v449.92L512 896l448-155.136v-449.92C960 23.68 512-128 512-128z m186.368 671.808L474.752 326.592 352 445.824 277.504 373.376l122.688-119.168 74.56-72.448 74.496 72.448 223.616 217.216-74.496 72.384zM512-128s-448 151.68-448 418.944v449.92L512 896l448-155.136v-449.92C960 23.68 512-128 512-128z m186.368 671.808L474.752 326.592 352 445.824 277.504 373.376l122.688-119.168 74.56-72.448 74.496 72.448 223.616 217.216-74.496 72.384z"  horiz-adv-x="1024" />

    
    <glyph glyph-name="BBDgouxuan" unicode="&#58967;" d="M512 896a512 512 0 1 1 0-1024A512 512 0 0 1 512 896z m-4.416-665.856l-83.648-96.896L181.76 342.4l83.648 96.896 145.344-125.504 334.656 387.52L842.24 617.6l-334.656-387.456z"  horiz-adv-x="1024" />

    
    <glyph glyph-name="ziliaoku" unicode="&#58880;" d="M878.252545 363.651556H145.746432c-44.946678 0-81.434707-36.436864-81.434707-81.382518v-244.224304c0-44.906769 36.459377-81.382519 81.434707-81.382519h732.506113c44.946678 0 81.434707 36.436864 81.434707 81.382519V282.269038c0 44.906769-36.459377 81.382519-81.434707 81.382518zM578.141396 124.456802H415.158395c-11.186783 0-20.255323 9.032724-20.255323 20.349467 0 11.238972 9.272177 20.349467 20.255323 20.349467H578.141396c11.186783 0 20.255323-9.032724 20.255323-20.349467 0-11.238972-9.272177-20.349467-20.255323-20.349467zM878.252545 811.338808H145.746432c-44.946678 0-81.434707-36.436864-81.434707-81.382518v-244.224304c0-44.906769 36.459377-81.382519 81.434707-81.382519h732.506113c44.946678 0 81.434707 36.436864 81.434707 81.382519V729.95629c0 44.906769-36.459377 81.382519-81.434707 81.382518zM578.141396 572.145078H415.158395c-11.186783 0-20.255323 9.031701-20.255323 20.349467 0 11.238972 9.272177 20.349467 20.255323 20.349467H578.141396c11.186783 0 20.255323-9.032724 20.255323-20.349467 0-11.238972-9.272177-20.349467-20.255323-20.349467z"  horiz-adv-x="1024" />

    
    <glyph glyph-name="guize" unicode="&#59546;" d="M896 704v-64H384v64h512zM224 576c52.8 0 96 43.2 96 96s-43.2 96-96 96-96-43.2-96-96 43.2-96 96-96z m128-160H128v-64h224v64z m320-64h224v64H672v-64z m-64 32c0 52.8-43.2 96-96 96s-96-43.2-96-96 43.2-96 96-96 96 43.2 96 96z m-480-320h512v64H128v-64z m672 128c-52.8 0-96-43.2-96-96s43.2-96 96-96 96 43.2 96 96-43.2 96-96 96z"  horiz-adv-x="1024" />

    
    <glyph glyph-name="zuzhijiagoujiekou" unicode="&#59547;" d="M256 256h-64V448h288V576h64v-128h288v-192h-64V384H544v-128h-64V384H256v-128z m256 384c52.8 0 96 43.2 96 96S564.8 832 512 832s-96-43.2-96-96 43.2-96 96-96z m0-448c-52.8 0-96-43.2-96-96s43.2-96 96-96 96 43.2 96 96-43.2 96-96 96z m-288 0c-52.8 0-96-43.2-96-96s43.2-96 96-96 96 43.2 96 96-43.2 96-96 96z m576 0c-52.8 0-96-43.2-96-96s43.2-96 96-96 96 43.2 96 96-43.2 96-96 96z"  horiz-adv-x="1024" />

    
    <glyph glyph-name="hezuoguanxi" unicode="&#59561;" d="M127.2 640c0 70.4 57.6 128 128 128s128-57.6 128-128-57.6-128-128-128-128 57.6-128 128z m641.6-128c70.4 0 128 57.6 128 128s-57.6 128-128 128-128-57.6-128-128 56.8-128 128-128z m0-64c-70.4 0-128-57.6-128-128v-51.2L512 194.4l-128 74.4V320c0 70.4-57.6 128-128 128s-128-57.6-128-128v-288c0-17.6 14.4-32 32-32h192c17.6 0 32 14.4 32 32V194.4l110.4-64c0.8 0 0.8-0.8 1.6-0.8 9.6-5.6 21.6-6.4 32 0l112.8 65.6V32c0-17.6 14.4-32 32-32h192c17.6 0 32 14.4 32 32V320c0 70.4-57.6 128-128 128z"  horiz-adv-x="1024" />

    
    <glyph glyph-name="jisuanqilishuai" unicode="&#59572;" d="M800 832H224c-17.6 0-32-14.4-32-32v-832c0-17.6 14.4-32 32-32h576c17.6 0 32 14.4 32 32V800c0 17.6-14.4 32-32 32z m-416-768h-64v64h64v-64z m0 160h-64v64h64v-64z m0 160h-64v64h64v-64z m160-320h-64v64h64v-64z m0 160h-64v64h64v-64z m0 160h-64v64h64v-64z m160-320h-64v64h64v-64z m0 160h-64v64h64v-64z m0 160h-64v64h64v-64z m0 192H320V704h384v-128z"  horiz-adv-x="1024" />

    
    <glyph glyph-name="shezhi1" unicode="&#59576;" d="M940 300l-76 57.6c0.8 8 1.6 16.8 1.6 26.4s-0.8 18.4-1.6 26.4l76 57.6c20.8 16 26.4 44 12.8 68l-84.8 143.2c-9.6 16.8-28 27.2-47.2 27.2-6.4 0-12-0.8-18.4-3.2L712 668c-15.2 10.4-31.2 19.2-47.2 26.4l-13.6 92c-4 26.4-26.4 45.6-53.6 45.6H426.4c-27.2 0-49.6-19.2-53.6-44.8L360 694.4c-16-7.2-31.2-16-47.2-26.4l-90.4 35.2c-6.4 2.4-12.8 3.2-19.2 3.2-19.2 0-37.6-9.6-46.4-26.4L71.2 536c-13.6-22.4-8-52 12.8-68l76-57.6c-0.8-9.6-1.6-18.4-1.6-26.4s0-16.8 1.6-26.4l-76-57.6c-20.8-16-26.4-44-12.8-68l84.8-143.2c9.6-16.8 28-27.2 47.2-27.2 6.4 0 12 0.8 18.4 3.2L312 100c15.2-10.4 31.2-19.2 47.2-26.4l13.6-92c3.2-25.6 26.4-45.6 53.6-45.6h171.2c27.2 0 49.6 19.2 53.6 44.8l13.6 92.8c16 7.2 31.2 16 47.2 26.4l90.4-35.2c6.4-2.4 12.8-3.2 19.2-3.2 19.2 0 37.6 9.6 46.4 26.4l85.6 144.8c12.8 23.2 7.2 51.2-13.6 67.2zM704 384c0-105.6-86.4-192-192-192S320 278.4 320 384s86.4 192 192 192 192-86.4 192-192z"  horiz-adv-x="1024" />

    
    <glyph glyph-name="lingdang" unicode="&#59584;" d="M512-64c49.6 0 88 38.4 88 88H424c0-49.6 38.4-88 88-88z m288.8 286.4V451.2c0 137.6-97.6 252.8-224.8 283.2v28.8c0 32-17.6 60.8-48 67.2-44 10.4-80-23.2-80-66.4v-30.4C320.8 704 223.2 588.8 223.2 451.2v-228.8L136 132.8v-44.8h752v44.8l-87.2 89.6z"  horiz-adv-x="1024" />

    
    <glyph glyph-name="baobiao" unicode="&#59650;" d="M960 224V736c0 17.6-14.4 32-32 32H544V832h-64v-64H96c-17.6 0-32-14.4-32-32v-512c0-17.6 14.4-32 32-32h384v-50.4l-152.8-89.6 32-56 144 84h19.2l144-84 32 56L544 141.6V192h384c17.6 0 32 14.4 32 32zM790.4 640l41.6-48.8-316.8-270.4L352 458.4 233.6 359.2 192.8 408l160 133.6 163.2-137.6L790.4 640z"  horiz-adv-x="1024" />

    
    <glyph glyph-name="bingtu" unicode="&#59651;" d="M912.8 584.8C943.2 524 960 456 960 384c0-247.2-200.8-448-448-448S64 136.8 64 384 264 832 512 832v-478.4l400.8 231.2zM576 833.6v-363.2l304 175.2c-69.6 99.2-178.4 169.6-304 188z"  horiz-adv-x="1024" />

    
    <glyph glyph-name="wenjian" unicode="&#58930;" d="M371.249288 615.849453m-17.607021-22.715202a28.74 28.74 0 1 1 35.214041 45.430405 28.74 28.74 0 1 1-35.214041-45.430405ZM425.737676 686.144742m-17.607021-22.715202a28.74 28.74 0 1 1 35.214041 45.430405 28.74 28.74 0 1 1-35.214041-45.430405ZM934.14 549.09H824.71L774.46 802a24 24 0 0 1-28.22 18.86l-243-48.28-1-0.22-66.15 51.28a30.11 30.11 0 0 1-42.25-5.35l-208.68-269.2H86.61a24 24 0 0 1-24-24V353a24 24 0 0 1 24-24h13.45v-365.67a24 24 0 0 1 24-24H896.7a24 24 0 0 1 24 24V329h13.44a24 24 0 0 1 24 24V525a24 24 0 0 1-24 24.09z m-242.17 0H453.23l89.61 115.6z m40.09 220l41.07-206.69-220.62 171zM423 757.59l72.25-56L377 549.09h-31.73a28.73 28.73 0 0 1-57 0h-26.9z m-312.39-256.5h799.53V377H110.61zM872.7-12.67H148.06V329H872.7zM647.71 279.06H373v-135.41h274.71z m-48-87.41H421v39.41h178.71z"  horiz-adv-x="1024" />

    
    <glyph glyph-name="folder__easyi" unicode="&#58881;" d="M932.248101-93.414007H91.751899a4.791822 4.791822 0 0 0-4.738776 4.06686L0.053046 484.575218a4.791822 4.791822 0 0 0 4.738776 5.516784h1014.416356c2.935212 0 5.180826-2.616936 4.738776-5.516784l-86.960077-573.922365a4.791822 4.791822 0 0 0-4.738776-4.06686zM954.828015 490.092002V759.42423a13.579776 13.579776 0 0 1-13.579776 13.579776H396.695676a13.509048 13.509048 0 0 0-11.634756 6.595386l-45.142147 75.236911a13.61514 13.61514 0 0 1-11.634756 6.595386H84.307777A13.61514 13.61514 0 0 1 70.728001 847.834231v-357.742229h884.100014zM123.774002 560.820003h778.008012v-70.728001H123.774002zM141.456002 613.866004h742.644012v-53.046001H141.456002zM159.138002 666.912004h707.280012v-53.046H159.138002zM42.083161 207.179997l14.23401-93.944467 93.944467 93.944467zM200.266335 207.179997H150.261638l-93.944467-93.944467 6.577704-43.426993 9.707418-64.044205 201.433347 201.415665zM324.040337 207.179997h-50.004697L72.602293 5.764332l1.626744-10.768338h129.078602l212.184003 212.184003zM465.496339 207.179997h-50.004697l-212.184003-212.184003h141.456002l212.184004 212.184003zM606.952341 207.179997h-50.004696l-212.184004-212.184003h141.456003l212.184003 212.184003zM748.408344 207.179997h-50.004697l-212.184003-212.184003h141.456002l212.184003 212.184003zM889.864346 207.179997h-50.004697l-212.184003-212.184003h141.456002l212.184003 212.184003zM981.315651 207.179997l-212.184003-212.184003h180.621633l23.34024 153.957176 8.823318 58.226827z"  horiz-adv-x="1024" />

    
    <glyph glyph-name="yonghuziliao" unicode="&#59675;" d="M928 704H96c-17.6 0-32-14.4-32-32v-576c0-17.6 14.4-32 32-32h832c17.6 0 32 14.4 32 32V672c0 17.6-14.4 32-32 32zM288 486.4c3.2 48 42.4 86.4 90.4 89.6 56 3.2 102.4-40.8 102.4-96 0-52.8-43.2-96-96-96-56-0.8-100.8 46.4-96.8 102.4zM576 208c0-8.8-7.2-16-16-16H208c-8.8 0-16 7.2-16 16v48c0 64 128 96 192 96s192-32 192-96v-48z m256 208H704v32h128v-32z m0 64H576v32h256v-32z m0 64H576v32h256v-32z"  horiz-adv-x="1024" />

    
    <glyph glyph-name="fangyingji1" unicode="&#59069;" d="M389.952 405.12h186.364c-19.065 9.491-36.371 22.009-51.283 36.907-35.344 35.343-57.212 84.177-57.212 138.108s21.868 102.764 57.212 138.108 84.177 57.212 138.108 57.212c53.932 0 102.765-21.868 138.109-57.212 35.357-35.344 57.211-84.177 57.211-138.108S836.607 477.37 801.25 442.027c-14.912-14.898-32.218-27.417-51.284-36.907h34.88l82.107 56.057-9.645 14.124 31.711 21.643 71.504-104.778-31.698-21.643-11.068 16.193-77.699-53.029V38.42c0-25.008-20.461-45.469-45.455-45.469h-506.12c-25.007 0-45.468 20.461-45.468 45.469v96.976H127.86v-21.206H64.212V323.294h63.647v-22.727h115.155v59.1c0 14.7 7.068 27.81 17.968 36.131-17.531 7.295-33.302 17.953-46.51 31.161-26.035 26.037-42.144 61.999-42.144 101.737 0 39.723 16.109 75.7 42.144 101.737 26.037 26.035 62.014 42.144 101.737 42.144s75.7-16.109 101.75-42.144c26.022-26.036 42.131-62.014 42.131-101.737 0-39.738-16.109-75.7-42.131-101.737a144.976 144.976 0 0 0-28.007-21.839z m374.432 81.149l-74.982 43.301v-84.98c27.6 5.309 52.269 18.827 71.35 37.921a180.822 180.822 0 0 1 3.632 3.758zM609.674 575.6l-78.46 45.299a138.17 138.17 0 0 1-6.125-40.764c0-17.01 3.084-33.302 8.716-48.354l75.869 43.819z m-53.254 92.119l79.84-46.102v93.951c-27.346-5.407-51.791-18.869-70.745-37.823a139.356 139.356 0 0 1-9.095-10.026zM715.973 575.6l76.404-44.115c5.69 15.137 8.816 31.527 8.816 48.65 0 14.307-2.169 28.106-6.21 41.074l-79.01-45.609z m-79.713-46.03l-74.574-43.061a172.074 172.074 0 0 1 3.83-3.998c18.954-18.94 43.399-32.416 70.745-37.808V529.57h-0.001z m53.142 92.047l80.263 46.342a136.361 136.361 0 0 1-8.912 9.786c-19.081 19.094-43.75 32.626-71.35 37.95v-94.078h-0.001zM390.796 459.558l-55.24 31.894v-62.605c20.332 3.915 38.498 13.87 52.565 27.951 0.902 0.901 1.789 1.83 2.675 2.76z m-113.958 65.801l-57.816 33.357a102.07 102.07 0 0 1-4.493-30.021c0-12.532 2.254-24.53 6.408-35.625l55.901 32.289z m-39.245 67.842l58.817-33.935v69.196c-20.149-3.971-38.146-13.899-52.099-27.868a101.082 101.082 0 0 1-6.718-7.393z m117.536-67.842l56.282-32.499c4.196 11.137 6.491 23.219 6.491 35.836 0 10.533-1.605 20.7-4.577 30.247l-58.196-33.584z m-58.719-33.922l-54.944-31.711c0.943-0.999 1.873-1.986 2.845-2.929 13.953-13.969 31.95-23.895 52.099-27.866v62.506z m39.147 67.815l59.127 34.133a106.368 106.368 0 0 1-6.562 7.21c-14.067 14.082-32.232 24.037-52.565 27.966v-69.309z"  horiz-adv-x="1024" />

    
    <glyph glyph-name="shangxian1" unicode="&#58960;" d="M680.504889 862.435556a418.759111 418.759111 0 0 0 365.624889-623.104 192.853333 192.853333 0 0 0-140.117334-325.233778c-6.940444 0-17.351111-0.227556-31.914666-0.568889H376.035556c-21.504 0.170667-37.831111 0.284444-48.924445 0.284444A288.597333 288.597333 0 0 0 263.68 484.010667 418.816 418.816 0 0 0 680.504889 862.435556z m347.704889-418.702223a347.648 347.648 0 0 1-695.239111 9.102223l-0.796445-30.833778-30.606222-3.584a217.543111 217.543111 0 0 1 25.543111-433.493334c11.320889 0 27.818667-0.113778 49.208889-0.284444h496.867556c14.222222 0.341333 25.144889 0.568889 32.824888 0.568889a121.742222 121.742222 0 0 1 73.045334 219.022222l-26.737778 20.081778 18.432 27.875555a345.884444 345.884444 0 0 1 57.457778 191.488z m-372.906667-283.420444V540.785778l-68.152889-68.209778a35.555556 35.555556 0 1 0-50.289778 50.289778l131.128889 131.185778a35.555556 35.555556 0 0 0 50.289778 0l126.577778-126.577778a35.555556 35.555556 0 1 0-50.289778-50.289778L726.471111 545.336889v-385.024a35.555556 35.555556 0 0 0-71.111111 0z"  horiz-adv-x="1137" />

    
    <glyph glyph-name="quanxian" unicode="&#58891;" d="M618.409 464.23a342.528 342.528 0 0 0 134.195 27.188c4.608 0 9.19-0.205 13.798-0.205 21.812 55.193 27.392 120.371 16.41 183.757C757.417 820.326 620.2 917.504 476.022 891.904c-144-25.6-265.6-137.574-240-282.931 5.401-31.386 20.608-80.384 38.604-115.763L13.02 115.917c-9.6-13.799-15.206-38.81-12.211-55.808L12.2-4.454c-10.803 62.182 2.995-22.4 11.392-22.196l86.195-1.203c16.589 2.995 37.402 16.999 46.592 31.207l103.398 161.74 0.999 0.999 90.393-7.194 120.781 189.338c0.41 0 0.82-0.205 1.203-0.205 10.804 14.797 22.605 28.8 35.79 42.01a337.843 337.843 0 0 0 109.465 74.188zM69.622 76.134l-12.8-5.401 1.408 14.003 250.598 363.7 15.002-14.004L69.622 76.134z m380.8 669.21c39.603 56.986 117.58 71.194 173.977 30.976a127.232 127.232 0 0 0 30.797-175.949c-39.603-56.985-80-16.793-136.602 23.194-56.37 40.192-107.776 64.589-68.172 121.779z m0 0M749.225 421.427c-151.808 0-274.79-122.957-274.79-274.739 0-151.757 122.982-274.688 274.79-274.688s274.79 122.957 274.79 274.688c0 151.782-123.008 274.74-274.79 274.74z m158.797-387.481c0-41.012-78.592-50.407-152.397-50.407s-153.395 9.395-153.395 50.407v11.366c0 30.208 54.4 60.8 100.608 77.389 3.404 1.203 19.404 10.01 10.393 33.382-22.989 23.399-40.192 61.389-40.192 98.765 0 57.19 37.811 87.168 82.202 87.168 44.21 0 82.406-29.978 82.406-87.168 0-37.197-17.408-74.982-40.192-98.586h0.205c-8.806-26.572 5.197-32.972 7.398-33.587 48.59-16 103.194-46.413 103.194-77.389l-0.23-11.34z m0 0"  horiz-adv-x="1024" />

    
    <glyph glyph-name="tuichufangying" unicode="&#58887;" d="M1225.603879 436.627394l-211.471515 213.519515a53.961697 53.961697 0 1 1-76.675879-75.931151l120.676848-121.887031-654.832485-1.551515a53.961697 53.961697 0 0 1 0.155152-107.923394h0.124121l653.994667 1.551515-120.118303-121.328485a53.961697 53.961697 0 1 1 76.675879-75.931151l211.471515 213.519515a53.961697 53.961697 0 0 1 0 75.962182m-416.116364-238.219636v-246.815031c0-29.789091-21.690182-53.961697-51.510303-53.961697H53.992727A53.992727 53.992727 0 0 0 0-48.376242V842.007273C0 871.796364 24.172606 896 53.992727 896h704.015515c29.789091 0 51.479273-24.172606 51.479273-53.992727v-246.784a53.992727 53.992727 0 0 0-107.923394 0V788.076606H107.954424v-782.522182h593.609697V198.438788a53.992727 53.992727 0 0 0 107.923394 0"  horiz-adv-x="1241" />

    
    <glyph glyph-name="yinhangqia" unicode="&#59702;" d="M960 640v-64H64v64c0 35.2 28.8 64 64 64h768c35.2 0 64-28.8 64-64z m0-128v-384c0-35.2-28.8-64-64-64H128c-35.2 0-64 28.8-64 64V512h896zM256 256H128v-32h128v32z m128 64H128v-32h256v32z"  horiz-adv-x="1024" />

    
    <glyph glyph-name="hongbao" unicode="&#59703;" d="M192 693.6V0c0-35.2 28.8-64 64-64h512c35.2 0 64 28.8 64 64V693.6L512 640l-320 53.6z m412.8-242.4l45.6-45.6L563.2 320H640v-64H544v-32h96v-64H544v-96h-64V160H384v64h96v32H384v64h76.8L374.4 406.4l45.6 45.6L512 359.2l92.8 92zM768 832H256c-35.2 0-64-28.8-64-64v-42.4L512 672l320 53.6V768c0 35.2-28.8 64-64 64z"  horiz-adv-x="1024" />

    
    <glyph glyph-name="dingyue" unicode="&#58950;" d="M704 490.666667v128a21.333333 21.333333 0 0 0 42.666667 0v-128h128a21.333333 21.333333 0 0 0 0-42.666667h-128v-128a21.333333 21.333333 0 0 0-42.666667 0v128h-128a21.333333 21.333333 0 0 0 0 42.666667h128z m149.333333-173.717334a21.333333 21.333333 0 0 0 42.666667 0V14.506667a64 64 0 0 0-98.794667-53.696l-273.088 176.96a21.333333 21.333333 0 0 1-23.189333 0l-274.197333-177.152A64 64 0 0 0 128 14.357333V661.333333a149.333333 149.333333 0 0 0 149.333333 149.333334h469.333334a149.333333 149.333333 0 0 0 149.333333-149.333334v-43.946666a21.333333 21.333333 0 0 0-42.666667 0V661.333333a106.666667 106.666667 0 0 1-106.666666 106.666667H277.333333a106.666667 106.666667 0 0 1-106.666666-106.666667v-646.976a21.333333 21.333333 0 0 1 32.917333-17.92l274.197333 177.173334a64 64 0 0 0 69.546667-0.064l273.066667-176.96A21.333333 21.333333 0 0 1 853.333333 14.506667V316.928z"  horiz-adv-x="1024" />

    
    <glyph glyph-name="youhuiquan" unicode="&#58953;" d="M850.204444 420.408889a28.444444 28.444444 0 0 1 0 56.888889h-184.32l202.524445 166.684444a29.098667 29.098667 0 1 1-36.977778 44.942222l-212.764444-174.933333-212.764445 174.933333A28.444444 28.444444 0 1 1 369.777778 645.404444l202.524444-166.684444h-187.733333a28.444444 28.444444 0 0 1 0-56.888889h203.662222v-87.324444h-203.662222a28.444444 28.444444 0 0 1 0-56.888889h203.662222V99.555556a28.444444 28.444444 0 1 1 56.888889 0v175.502222h203.662222a28.444444 28.444444 0 0 1 0 56.888889h-202.24v88.462222zM1227.946667 524.231111l23.608889 3.982222V696.888889a199.111111 199.111111 0 0 1-199.111112 199.111111H199.111111a199.111111 199.111111 0 0 1-199.111111-199.111111v-168.675556l23.608889-3.982222a142.222222 142.222222 0 0 0 0-280.462222l-23.608889-3.982222V71.111111a199.111111 199.111111 0 0 1 199.111111-199.111111h853.333333a199.111111 199.111111 0 0 1 199.111112 199.111111v168.675556l-23.608889 3.982222a142.222222 142.222222 0 0 0 0 280.462222zM1052.444444 384a199.111111 199.111111 0 0 1 142.222223-190.862222V71.111111a142.222222 142.222222 0 0 0-142.222223-142.222222H199.111111a142.222222 142.222222 0 0 0-142.222222 142.222222v122.026667a199.111111 199.111111 0 0 1 0 381.724444V696.888889a142.222222 142.222222 0 0 0 142.222222 142.222222h853.333333a142.222222 142.222222 0 0 0 142.222223-142.222222v-122.026667A199.111111 199.111111 0 0 1 1052.444444 384z"  horiz-adv-x="1251" />

    


  </font>
</defs>
</svg>
